<svg width="25" height="37" viewBox="0 0 25 37" fill="none" xmlns="http://www.w3.org/2000/svg">
<g clip-path="url(#clip0_7_59)">
<path d="M22.3733 8.41393L22.3484 8.39934L22.291 8.38184C22.3141 8.40132 22.343 8.41263 22.3733 8.41393Z" fill="#0D0C22"/>
<path d="M22.7347 10.998L22.707 11.0058L22.7347 10.998Z" fill="#0D0C22"/>
<path d="M22.3835 8.40993C22.38 8.40948 22.3766 8.40866 22.3732 8.40747C22.373 8.40976 22.373 8.41208 22.3732 8.41437C22.377 8.41386 22.3806 8.41234 22.3835 8.40993Z" fill="#0D0C22"/>
<path d="M22.373 8.41431H22.3768V8.41199L22.373 8.41431Z" fill="#0D0C22"/>
<path d="M22.7129 10.9934L22.7547 10.9695L22.7703 10.9608L22.7844 10.9457C22.7579 10.9571 22.7337 10.9733 22.7129 10.9934Z" fill="#0D0C22"/>
<path d="M22.4456 8.4704L22.4047 8.43146L22.377 8.41638C22.3919 8.44268 22.4165 8.46208 22.4456 8.4704Z" fill="#0D0C22"/>
<path d="M12.1614 33.5458C12.1287 33.5599 12.1001 33.582 12.0781 33.61L12.1039 33.5936C12.1215 33.5774 12.1463 33.5585 12.1614 33.5458Z" fill="#0D0C22"/>
<path d="M18.1335 32.3707C18.1335 32.3339 18.1155 32.3407 18.1198 32.472C18.1198 32.4615 18.1242 32.4507 18.1262 32.4406C18.1286 32.4171 18.1305 32.3942 18.1335 32.3707Z" fill="#0D0C22"/>
<path d="M17.5139 33.5458C17.4812 33.5599 17.4526 33.582 17.4307 33.61L17.4565 33.5936C17.474 33.5774 17.4988 33.5585 17.5139 33.5458Z" fill="#0D0C22"/>
<path d="M7.95575 33.8252C7.93095 33.8037 7.9006 33.7896 7.86816 33.7842C7.89444 33.7969 7.92071 33.8096 7.93821 33.8192L7.95575 33.8252Z" fill="#0D0C22"/>
<path d="M7.00917 32.9188C7.00529 32.8806 6.99353 32.8436 6.97461 32.8099C6.98801 32.8447 6.99921 32.8806 7.00818 32.9168L7.00917 32.9188Z" fill="#0D0C22"/>
<path d="M13.3659 16.7092C12.0667 17.2654 10.5922 17.896 8.68131 17.896C7.88193 17.8945 7.0864 17.7848 6.31641 17.57L7.63804 31.1392C7.68482 31.7062 7.94319 32.2351 8.36182 32.6205C8.78046 33.006 9.32876 33.2198 9.89783 33.2198C9.89783 33.2198 11.7718 33.3171 12.3971 33.3171C13.07 33.3171 15.088 33.2198 15.088 33.2198C15.657 33.2198 16.2051 33.0057 16.6237 32.6203C17.0423 32.2348 17.3005 31.7062 17.3473 31.1392L18.7628 16.1447C18.1303 15.9287 17.4918 15.7852 16.7721 15.7852C15.5274 15.7847 14.5245 16.2134 13.3659 16.7092Z" fill="#FFDD00"/>
<path d="M2.22559 10.92L2.24797 10.941L2.26257 10.9497C2.25133 10.9386 2.23893 10.9286 2.22559 10.92Z" fill="#0D0C22"/>
<path d="M24.8746 9.66768L24.6756 8.6638C24.497 7.76309 24.0917 6.91202 23.1671 6.58648C22.8708 6.48232 22.5345 6.43758 22.3073 6.222C22.0801 6.00645 22.0129 5.67166 21.9604 5.3612C21.863 4.79137 21.7715 4.22107 21.6718 3.65223C21.5857 3.16318 21.5175 2.61381 21.2932 2.16516C21.0012 1.56274 20.3954 1.21043 19.793 0.977347C19.4843 0.862115 19.1693 0.764635 18.8495 0.685385C17.3444 0.288312 15.7619 0.142329 14.2135 0.0591196C12.3551 -0.0434324 10.4916 -0.0125349 8.6375 0.151575C7.25749 0.277119 5.80399 0.428942 4.49259 0.906304C4.01329 1.081 3.51937 1.29072 3.15492 1.66103C2.70771 2.11601 2.56173 2.81964 2.88824 3.38702C3.12036 3.78993 3.51355 4.0746 3.93057 4.26292C4.47376 4.50557 5.04103 4.69021 5.62299 4.81377C7.24338 5.17192 8.92169 5.31253 10.5771 5.3724C12.412 5.44644 14.2497 5.38643 16.0758 5.19282C16.5274 5.14318 16.9781 5.08365 17.4281 5.01425C17.958 4.93298 18.2981 4.24005 18.1419 3.75732C17.9551 3.18023 17.4529 2.95639 16.885 3.0435C16.8013 3.05662 16.7181 3.06878 16.6344 3.08094L16.5741 3.08971C16.3817 3.11406 16.1893 3.13674 15.997 3.15783C15.5996 3.20065 15.2012 3.23569 14.8019 3.26295C13.9075 3.32523 13.0107 3.35393 12.1143 3.3554C11.2336 3.3554 10.3523 3.33057 9.4735 3.27268C9.07254 3.24641 8.67254 3.21298 8.27353 3.17243C8.09202 3.15345 7.911 3.13351 7.73001 3.11111L7.55772 3.08923L7.52028 3.08388L7.34168 3.05809C6.97672 3.00308 6.61176 2.93985 6.25071 2.86343C6.21428 2.85535 6.18167 2.8351 6.15831 2.80598C6.13495 2.77687 6.12223 2.74066 6.12223 2.70335C6.12223 2.66602 6.13495 2.62982 6.15831 2.60071C6.18167 2.5716 6.21428 2.55133 6.25071 2.54325H6.25752C6.57042 2.47659 6.88572 2.41965 7.20201 2.37002C7.30747 2.35347 7.41321 2.33725 7.51929 2.32136H7.5222C7.72025 2.30822 7.91929 2.2727 8.11635 2.24934C9.83099 2.07099 11.5558 2.01018 13.2788 2.06735C14.1152 2.09168 14.9512 2.14083 15.7838 2.22549C15.9629 2.24399 16.141 2.26345 16.3191 2.28535C16.3872 2.29362 16.4558 2.30335 16.5245 2.31163L16.6626 2.33158C17.0656 2.39159 17.4663 2.46442 17.865 2.55007C18.4558 2.67853 19.2144 2.72038 19.4772 3.36756C19.5609 3.57291 19.5988 3.80113 19.6451 4.01669L19.7039 4.29163C19.7055 4.29655 19.7066 4.30161 19.7074 4.3067C19.8465 4.95551 19.9859 5.60433 20.1253 6.25314C20.1356 6.30107 20.1358 6.35059 20.126 6.39861C20.1163 6.44666 20.0967 6.49214 20.0686 6.5323C20.0405 6.57243 20.0044 6.60633 19.9626 6.6319C19.9208 6.65747 19.8742 6.67412 19.8256 6.68088H19.8217L19.7365 6.69256L19.6524 6.70373C19.3857 6.73846 19.1187 6.7709 18.8514 6.80107C18.3249 6.86109 17.7976 6.91298 17.2695 6.95679C16.22 7.04403 15.1684 7.1013 14.1148 7.12856C13.5779 7.14282 13.0411 7.14949 12.5046 7.1485C10.3689 7.14683 8.23498 7.02268 6.11349 6.77673C5.88379 6.74949 5.65413 6.72028 5.42443 6.69061C5.60254 6.71349 5.29499 6.67308 5.23272 6.66434C5.08674 6.64389 4.94075 6.62265 4.79477 6.60059C4.30475 6.52709 3.81768 6.43659 3.32862 6.35727C2.7374 6.25995 2.17196 6.30863 1.63718 6.60059C1.1982 6.84081 0.842916 7.20916 0.61871 7.65653C0.388057 8.1334 0.319446 8.6526 0.216286 9.16502C0.113125 9.6774 -0.0474562 10.2287 0.0133696 10.7548C0.144267 11.89 0.937924 12.8126 2.0795 13.0189C3.15345 13.2136 4.23323 13.3712 5.31592 13.5055C9.56903 14.0264 13.8658 14.0887 18.1322 13.6914C18.4796 13.659 18.8266 13.6236 19.173 13.5854C19.2813 13.5735 19.3908 13.5859 19.4936 13.6218C19.5963 13.6577 19.6898 13.7162 19.767 13.7929C19.8443 13.8696 19.9034 13.9626 19.94 14.0651C19.9767 14.1676 19.99 14.277 19.9789 14.3853L19.8708 15.4354C19.6532 17.5574 19.4355 19.6791 19.2178 21.8007C18.9908 24.0288 18.7622 26.2566 18.5322 28.4842C18.4673 29.1117 18.4024 29.739 18.3376 30.3659C18.2753 30.9836 18.2665 31.6205 18.1492 32.2308C17.9643 33.1903 17.3147 33.7797 16.3668 33.9952C15.4984 34.1929 14.6112 34.2967 13.7206 34.3046C12.7333 34.31 11.7465 34.2661 10.7591 34.2715C9.70512 34.2774 8.41417 34.1801 7.60057 33.3956C6.88572 32.7067 6.78693 31.6278 6.68962 30.6949C6.55987 29.4598 6.43125 28.2251 6.30373 26.9904L5.58843 20.1249L5.12568 15.6826C5.11787 15.6092 5.1101 15.5367 5.1028 15.4627C5.04731 14.9328 4.67214 14.4141 4.08091 14.4408C3.57486 14.4632 2.99969 14.8934 3.05905 15.4627L3.40209 18.7561L4.11157 25.5686C4.31369 27.5036 4.5153 29.4389 4.71643 31.3747C4.75537 31.7455 4.79185 32.1174 4.83272 32.4881C5.05512 34.5144 6.60252 35.6063 8.51878 35.9137C9.63798 36.0939 10.7844 36.1309 11.9202 36.1493C13.3761 36.1728 14.8466 36.2288 16.2787 35.9649C18.4008 35.5755 19.993 34.1587 20.2202 31.9607C20.2851 31.3261 20.35 30.6915 20.4149 30.0566C20.6306 27.957 20.846 25.8573 21.0611 23.7574L21.7647 16.8962L22.0874 13.7518C22.1034 13.5958 22.1693 13.4492 22.2751 13.3337C22.381 13.2181 22.5213 13.1396 22.6752 13.1099C23.282 12.9917 23.862 12.7897 24.2936 12.3279C24.9807 11.5927 25.1174 10.6341 24.8746 9.66768ZM2.04836 10.346C2.05761 10.3416 2.04058 10.4209 2.03328 10.4579C2.03182 10.402 2.03474 10.3523 2.04836 10.346ZM2.10724 10.8015C2.11211 10.798 2.12671 10.8175 2.14179 10.8409C2.11892 10.8195 2.10432 10.8034 2.10676 10.8015H2.10724ZM2.16515 10.8779C2.18607 10.9134 2.19727 10.9358 2.16515 10.8779V10.8779ZM2.28145 10.9723H2.28437C2.28437 10.9757 2.28972 10.9791 2.29167 10.9825C2.28844 10.9787 2.28486 10.9753 2.28096 10.9723H2.28145ZM22.6469 10.8311C22.429 11.0384 22.1005 11.1348 21.7759 11.183C18.1361 11.7231 14.4432 11.9966 10.7635 11.8759C8.12998 11.7859 5.52421 11.4934 2.91697 11.1251C2.66149 11.0891 2.38461 11.0423 2.20894 10.854C1.87805 10.4988 2.04058 9.78348 2.12671 9.3543C2.20554 8.96111 2.35639 8.43705 2.82402 8.38108C3.55393 8.29545 4.40158 8.60345 5.12373 8.71295C5.99313 8.84562 6.86578 8.95187 7.74166 9.03167C11.4798 9.37231 15.2807 9.31926 19.0023 8.82098C19.6806 8.72981 20.3565 8.6239 21.0299 8.50322C21.6299 8.39567 22.2951 8.19375 22.6577 8.81513C22.9063 9.23849 22.9394 9.80489 22.901 10.2832C22.8891 10.4916 22.798 10.6876 22.6465 10.8311H22.6469Z" fill="#0D0C22"/>
</g>
<defs>
<clipPath id="clip0_7_59">
<rect width="25" height="36.1708" fill="white"/>
</clipPath>
</defs>
</svg>
