<svg width="32" height="32" viewBox="0 0 32 32" fill="none" xmlns="http://www.w3.org/2000/svg">
<path d="M9.59544 8.68338C9.57731 8.68338 9.55913 8.68888 9.54381 8.6995L0.0400625 15.1872C0.014875 15.2044 0 15.2326 0 15.2633V17.0084C0 17.0386 0.014875 17.0673 0.0400625 17.084L9.54381 23.5722C9.55919 23.5828 9.57731 23.5883 9.59544 23.5883C9.61031 23.5883 9.62469 23.5843 9.63831 23.5778C9.66856 23.5616 9.68719 23.5304 9.68719 23.4961V20.7163C9.68719 20.6865 9.67231 20.6578 9.64713 20.6411L3.04806 16.1354L9.64713 11.6311C9.67231 11.6135 9.68719 11.5853 9.68719 11.5545V8.77563C9.68719 8.74138 9.66856 8.71006 9.63831 8.69444C9.62469 8.68694 9.61031 8.68338 9.59544 8.68338Z" fill="#1172B8"/>
<path d="M31.9599 15.1872L22.4561 8.6995C22.4407 8.68894 22.4226 8.68338 22.4044 8.68338C22.3896 8.68338 22.3752 8.68688 22.3616 8.69444C22.3314 8.71006 22.3127 8.74138 22.3127 8.77563V11.5555C22.3127 11.5858 22.3276 11.614 22.3528 11.6311L28.9519 16.1354L22.3528 20.6411C22.3276 20.6578 22.3127 20.6864 22.3127 20.7172V23.4961C22.3127 23.5303 22.3314 23.5616 22.3616 23.5777C22.3752 23.5843 22.3896 23.5883 22.4044 23.5883C22.4226 23.5883 22.4407 23.5828 22.4561 23.5721L31.9599 17.0839C31.9851 17.0673 32 17.0386 32 17.0083V15.2633C32 15.2326 31.9851 15.2044 31.9599 15.1872Z" fill="#1172B8"/>
<path d="M20.3442 7.16212H17.6878C17.6485 7.16212 17.6137 7.18681 17.6011 7.22362L11.5688 24.7164C11.5593 24.7441 11.5638 24.7754 11.5809 24.7991C11.5983 24.8233 11.6261 24.8379 11.6558 24.8379H14.3124C14.3515 24.8379 14.3863 24.8132 14.3991 24.7759L20.4312 7.28412C20.4408 7.25587 20.4363 7.22462 20.4191 7.20044C20.4017 7.17675 20.3739 7.16212 20.3442 7.16212Z" fill="#1172B8"/>
</svg>
