<?xml version="1.0" standalone="no"?>
<!DOCTYPE svg PUBLIC "-//W3C//DTD SVG 20010904//EN"
 "http://www.w3.org/TR/2001/REC-SVG-20010904/DTD/svg10.dtd">
<svg version="1.0" xmlns="http://www.w3.org/2000/svg"
 width="265.000000pt" height="265.000000pt" viewBox="0 0 265.000000 265.000000"
 preserveAspectRatio="xMidYMid meet">
<metadata>
Created by potrace 1.14, written by Peter Selinger 2001-2017
</metadata>
<g transform="translate(0.000000,265.000000) scale(0.100000,-0.100000)"
fill="#000000" stroke="none">
<path d="M292 2298 c-87 -15 -172 -81 -214 -167 l-23 -46 0 -755 0 -755 23
-46 c31 -64 86 -117 151 -148 l56 -25 1065 0 1065 0 56 25 c68 32 118 81 150
145 l24 49 0 755 0 755 -23 46 c-31 64 -86 117 -151 148 l-56 25 -1041 1
c-573 0 -1059 -3 -1082 -7z"/>
</g>
</svg>
